<svg xmlns="http://www.w3.org/2000/svg" width="1695.874" height="1272.114" viewBox="0 0 1695.874 1272.114">
  <g id="Group_8" data-name="Group 8" transform="translate(-132 -929.664)">
    <path id="Path_2" data-name="Path 2" d="M3082.587,929.831s8.331,149.763-176.5,284.809-418.158,147.115-545.65,276.572-118.155,393.112,98.865,500.89c285.586,105.881,546.291-163.137,795.995-164.659,188.044-1.605,184.52,36.14,354.948,83.312,216.585,56.7,340.987,289.61,340.987,289.61" transform="translate(-2126)" fill="none" stroke="rgba(255,255,255,0.55)" stroke-width="6" stroke-dasharray="15 14"/>
    <circle id="Ellipse_1" data-name="Ellipse 1" cx="39" cy="39" r="39" transform="translate(817 1116)" fill="#fff"/>
    <circle id="Ellipse_2" data-name="Ellipse 2" cx="39" cy="39" r="39" transform="translate(199 1441)" fill="#fff"/>
    <circle id="Ellipse_3" data-name="Ellipse 3" cx="39" cy="39" r="39" transform="translate(132 1764)" fill="#fff"/>
    <circle id="Ellipse_4" data-name="Ellipse 4" cx="39" cy="39" r="39" transform="translate(719 1899)" fill="#fff"/>
    <circle id="Ellipse_5" data-name="Ellipse 5" cx="39" cy="39" r="39" transform="translate(1320 1829)" fill="#fff"/>
  </g>
</svg>
