<svg xmlns="http://www.w3.org/2000/svg" width="313.024" height="1055.734" viewBox="0 0 313.024 1055.734">
  <g id="Group_11" data-name="Group 11" transform="translate(-34.685 -1059.596)">
    <path id="Path_16" data-name="Path 16" d="M11638.748,943.636c5.392,204.145-200.4,77.034-206.464,203.764s245.064,70.368,265.516,224.246-233.714,46.659-239.54,125.258,8.147,86.239,86.091,82.908,195.517-99.166,179.152,67.779-245.69,38-265.243,214.941,160.95,75.036,284.792,135.451" transform="translate(-11396 116)" fill="none" stroke="#fff" stroke-width="3" stroke-dasharray="7 9"/>
    <g id="Group_10" data-name="Group 10">
      <circle id="Ellipse_34" data-name="Ellipse 34" cx="11" cy="11" r="11" transform="translate(60 1197)" fill="#fff"/>
      <circle id="Ellipse_35" data-name="Ellipse 35" cx="11" cy="11" r="11" transform="translate(58 1311)" fill="#fff"/>
      <circle id="Ellipse_36" data-name="Ellipse 36" cx="11" cy="11" r="11" transform="translate(294 1502)" fill="#fff"/>
      <circle id="Ellipse_37" data-name="Ellipse 37" cx="11" cy="11" r="11" transform="translate(316 1692)" fill="#fff"/>
      <circle id="Ellipse_38" data-name="Ellipse 38" cx="11" cy="11" r="11" transform="translate(60 1932)" fill="#fff"/>
    </g>
  </g>
</svg>
